<svg width="82" height="82" viewBox="0 0 82 82" fill="none" xmlns="http://www.w3.org/2000/svg">
<g id="Logomark" clip-path="url(#clip0_1_875)">
<g id="_2C">
<path id="Vector" d="M41 82C18.3923 82 0 63.6077 0 41C0 18.3923 18.3923 0 41 0C63.6077 0 82 18.3923 82 41C82 63.6077 63.6077 82 41 82ZM41 5.92044C21.6574 5.92044 5.92044 21.6574 5.92044 41C5.92044 60.3426 21.6574 76.0796 41 76.0796C60.3426 76.0796 76.0796 60.3426 76.0796 41C76.0796 21.6574 60.3426 5.92044 41 5.92044Z" fill="black"/>
<g id="Group">
<path id="V" d="M31.759 27.3334L39.9371 54.0261H40.2407L48.4188 27.3334H58.3111L45.9725 63.7778H34.2053L21.8667 27.3334H31.759Z" fill="black"/>
</g>
</g>
</g>
<defs>
<clipPath id="clip0_1_875">
<rect width="82" height="82" fill="white"/>
</clipPath>
</defs>
</svg>
