<svg width="45" height="45" viewBox="0 0 45 45" fill="none" xmlns="http://www.w3.org/2000/svg">
<g clip-path="url(#clip0_1_779)">
<path d="M22.5 45C10.0934 45 0 34.9066 0 22.5C0 10.0934 10.0934 0 22.5 0C34.9066 0 45 10.0934 45 22.5C45 34.9066 34.9066 45 22.5 45ZM22.5 3.24902C11.8852 3.24902 3.24902 11.8852 3.24902 22.5C3.24902 33.1148 11.8852 41.751 22.5 41.751C33.1148 41.751 41.751 33.1148 41.751 22.5C41.751 11.8852 33.1148 3.24902 22.5 3.24902Z" fill="black"/>
<path d="M17.4287 15L21.9167 29.6484H22.0833L26.5713 15H32L25.2288 35H18.7712L12 15H17.4287Z" fill="black"/>
</g>
<defs>
<clipPath id="clip0_1_779">
<rect width="45" height="45" fill="white"/>
</clipPath>
</defs>
</svg>
